<?xml version="1.0" encoding="UTF-8" standalone="no"?>
<svg
   xmlns:dc="http://purl.org/dc/elements/1.1/"
   xmlns:cc="http://creativecommons.org/ns#"
   xmlns:rdf="http://www.w3.org/1999/02/22-rdf-syntax-ns#"
   xmlns:svg="http://www.w3.org/2000/svg"
   xmlns="http://www.w3.org/2000/svg"
   viewBox="0 0 182.66667 53.333332"
   height="40.0"
   width="137.0"
   xml:space="preserve"
   id="svg2"
   version="1.1"><metadata
     id="metadata8"><rdf:RDF><cc:Work
         rdf:about=""><dc:format>image/svg+xml</dc:format><dc:type
           rdf:resource="http://purl.org/dc/dcmitype/StillImage" /></cc:Work></rdf:RDF></metadata><defs
     id="defs6" /><g
     transform="matrix(1.3333333,0,0,-1.3333333,0,53.333333)"
     id="g10"><g
       transform="scale(0.1)"
       id="g12"><path
         id="path14"
         style="fill:#100f0d;fill-opacity:1;fill-rule:nonzero;stroke:none"
         d="M 1320,0 H 50 C 22.5,0 0,22.5 0,50 v 300 c 0,27.5 22.5,50 50,50 h 1270 c 27.5,0 50,-22.5 50,-50 V 50 c 0,-27.5 -22.5,-50 -50,-50" /><path
         id="path16"
         style="fill:#a2a2a1;fill-opacity:1;fill-rule:nonzero;stroke:none"
         d="M 1320,400 H 50 C 22.5,400 0,377.5 0,350 V 50 C 0,22.5 22.5,0 50,0 h 1270 c 27.5,0 50,22.5 50,50 v 300 c 0,27.5 -22.5,50 -50,50 z m 0,-7.996 c 23.16,0 42,-18.844 42,-42.004 V 50 C 1362,26.8438 1343.16,8 1320,8 H 50 C 26.8398,8 8,26.8438 8,50 v 300 c 0,23.16 18.8398,42.004 42,42.004 h 1270" /><path
         id="path18"
         style="fill:#ffffff;fill-opacity:1;fill-rule:evenodd;stroke:none"
         d="M 405.664,97.5352 C 374.695,74.6836 329.801,62.5313 291.137,62.5313 c -54.184,0 -102.973,20.0273 -139.899,53.3667 -2.898,2.618 -0.312,6.192 3.168,4.165 39.84,-23.1763 89.106,-37.1411 139.985,-37.1411 34.324,0 72.054,7.125 106.769,21.8511 5.235,2.219 9.625,-3.449 4.504,-7.2378" /><path
         id="path20"
         style="fill:#ffffff;fill-opacity:1;fill-rule:evenodd;stroke:none"
         d="m 418.551,112.254 c -3.961,5.066 -26.184,2.398 -36.168,1.203 -3.024,-0.363 -3.492,2.281 -0.77,4.195 17.731,12.446 46.774,8.852 50.153,4.684 3.398,-4.199 -0.895,-33.3243 -17.504,-47.2227 -2.559,-2.1328 -4.992,-0.9961 -3.852,1.8242 3.738,9.3359 12.106,30.2385 8.141,35.3165" /><path
         id="path22"
         style="fill:#ffffff;fill-opacity:1;fill-rule:evenodd;stroke:none"
         d="m 383.09,205.605 v 12.102 c 0.012,1.84 1.39,3.066 3.066,3.063 l 54.223,0.003 c 1.734,0 3.125,-1.261 3.125,-3.05 v -10.379 c -0.016,-1.739 -1.484,-4.008 -4.082,-7.617 l -28.086,-40.102 c 10.426,0.242 21.449,-1.316 30.93,-6.641 2.132,-1.203 2.703,-2.976 2.875,-4.722 v -12.91 c 0,-1.778 -1.95,-3.836 -4,-2.762 -16.684,8.738 -38.832,9.695 -57.289,-0.11 -1.883,-1.003 -3.86,1.024 -3.86,2.805 v 12.27 c 0,1.968 0.039,5.324 2.02,8.316 l 32.543,46.688 h -28.336 c -1.735,0 -3.117,1.238 -3.129,3.046" /><path
         id="path24"
         style="fill:#ffffff;fill-opacity:1;fill-rule:evenodd;stroke:none"
         d="m 185.293,130.047 h -16.496 c -1.57,0.101 -2.82,1.277 -2.949,2.785 l 0.011,84.664 c 0,1.699 1.426,3.047 3.184,3.047 l 15.359,0.004 c 1.614,-0.078 2.903,-1.293 3,-2.84 v -11.055 h 0.313 c 4.004,10.688 11.547,15.676 21.707,15.676 10.316,0 16.789,-4.988 21.406,-15.676 4.004,10.688 13.094,15.676 22.789,15.676 6.934,0 14.477,-2.844 19.098,-9.262 5.234,-7.128 4.16,-17.461 4.16,-26.546 l -0.016,-53.426 c 0,-1.692 -1.425,-3.047 -3.183,-3.047 h -16.477 c -1.66,0.101 -2.957,1.414 -2.957,3.035 l -0.004,44.887 c 0,3.558 0.309,12.472 -0.465,15.855 -1.23,5.703 -4.925,7.309 -9.699,7.309 -4.008,0 -8.164,-2.676 -9.859,-6.945 -1.692,-4.286 -1.539,-11.403 -1.539,-16.219 v -44.875 c 0,-1.692 -1.422,-3.047 -3.18,-3.047 h -16.48 c -1.657,0.101 -2.961,1.414 -2.961,3.035 l -0.016,44.887 c 0,9.445 1.535,23.336 -10.16,23.336 -11.863,0 -11.399,-13.535 -11.399,-23.336 l -0.003,-44.875 c 0,-1.692 -1.426,-3.047 -3.184,-3.047" /><path
         id="path26"
         style="fill:#ffffff;fill-opacity:1;fill-rule:evenodd;stroke:none"
         d="m 490.336,205.051 c -12.164,0 -12.934,-16.571 -12.934,-26.906 0,-10.332 -0.152,-32.422 12.782,-32.422 12.785,0 13.398,17.816 13.398,28.675 0,7.129 -0.309,15.688 -2.465,22.454 -1.851,5.882 -5.547,8.199 -10.781,8.199 z m -0.152,17.277 c 24.484,0 37.726,-21.023 37.726,-47.746 0,-25.832 -14.625,-46.324 -37.726,-46.324 -24.024,0 -37.11,21.031 -37.11,47.219 0,26.367 13.239,46.851 37.11,46.851" /><path
         id="path28"
         style="fill:#ffffff;fill-opacity:1;fill-rule:evenodd;stroke:none"
         d="m 559.66,130.047 h -16.433 c -1.653,0.101 -2.957,1.414 -2.957,3.035 l -0.032,84.695 c 0.141,1.555 1.508,2.766 3.168,2.766 l 15.305,0.004 c 1.437,-0.07 2.633,-1.055 2.93,-2.367 v -12.95 h 0.312 c 4.617,11.583 11.082,17.098 22.481,17.098 7.39,0 14.629,-2.664 19.246,-9.973 4.312,-6.769 4.312,-18.167 4.312,-26.367 v -53.281 c -0.179,-1.496 -1.527,-2.66 -3.16,-2.66 h -16.535 c -1.531,0.098 -2.762,1.219 -2.938,2.66 v 45.973 c 0,9.265 1.079,22.804 -10.316,22.804 -4.004,0 -7.699,-2.671 -9.547,-6.765 -2.312,-5.172 -2.621,-10.332 -2.621,-16.039 v -45.586 c -0.027,-1.692 -1.453,-3.047 -3.215,-3.047" /><path
         id="path30"
         style="fill:#ffffff;fill-opacity:1;fill-rule:evenodd;stroke:none"
         d="m 356.492,130.254 c -1.094,-0.981 -2.664,-1.043 -3.894,-0.387 -5.481,4.559 -6.461,6.66 -9.457,10.996 -9.055,-9.222 -15.465,-11.992 -27.2,-11.992 -13.886,0 -24.691,8.57 -24.691,25.711 0,13.395 7.254,22.5 17.594,26.961 8.949,3.934 21.449,4.645 31.019,5.719 v 2.144 c 0,3.93 0.309,8.563 -2.008,11.957 -2.007,3.035 -5.863,4.285 -9.257,4.285 -6.293,0 -11.883,-3.218 -13.262,-9.902 -0.281,-1.488 -1.371,-2.957 -2.859,-3.035 l -15.993,1.734 c -1.351,0.301 -2.851,1.387 -2.461,3.453 3.676,19.391 21.192,25.25 36.887,25.25 8.028,0 18.52,-2.136 24.848,-8.21 8.023,-7.5 7.25,-17.5 7.25,-28.395 v -25.695 c 0,-7.739 3.211,-11.125 6.23,-15.289 1.055,-1.504 1.289,-3.286 -0.054,-4.387 -3.371,-2.82 -9.356,-8.024 -12.653,-10.957 z m -16.629,40.223 c 0,-6.434 0.157,-11.786 -3.086,-17.5 -2.625,-4.641 -6.793,-7.5 -11.422,-7.5 -6.328,0 -10.031,4.824 -10.031,11.964 0,14.047 12.606,16.61 24.539,16.61 v -3.574" /><path
         id="path32"
         style="fill:#ffffff;fill-opacity:1;fill-rule:evenodd;stroke:none"
         d="m 140.238,130.254 c -1.09,-0.981 -2.668,-1.043 -3.894,-0.387 -5.485,4.559 -6.461,6.66 -9.453,10.996 -9.059,-9.222 -15.469,-11.992 -27.1996,-11.992 -13.8906,0 -24.6914,8.57 -24.6914,25.711 0,13.395 7.25,22.5 17.5938,26.961 8.9492,3.934 21.4492,4.645 31.0112,5.719 v 2.144 c 0,3.93 0.317,8.563 -2,11.957 -2.011,3.035 -5.871,4.285 -9.261,4.285 -6.289,0 -11.887,-3.218 -13.2581,-9.902 -0.289,-1.488 -1.3711,-2.957 -2.8671,-3.035 l -15.9922,1.734 c -1.3477,0.301 -2.8516,1.387 -2.4571,3.453 3.668,19.391 21.1914,25.25 36.8865,25.25 8.028,0 18.524,-2.136 24.852,-8.21 8.019,-7.5 7.25,-17.5 7.25,-28.395 v -25.695 c 0,-7.739 3.211,-11.125 6.222,-15.289 1.051,-1.504 1.29,-3.286 -0.05,-4.387 -3.371,-2.82 -9.364,-8.024 -12.653,-10.957 z m -16.633,40.223 c 0,-6.434 0.161,-11.786 -3.085,-17.5 -2.622,-4.641 -6.79,-7.5 -11.418,-7.5 -6.325,0 -10.0317,4.824 -10.0317,11.964 0,14.047 12.6097,16.61 24.5347,16.61 v -3.574" /><path
         id="path34"
         style="fill:#ffffff;fill-opacity:1;fill-rule:nonzero;stroke:none"
         d="m 680.586,143.539 c 3.328,0 6.832,0.715 10.508,2.16 3.672,1.426 7.234,3.465 10.672,6.114 v 16.535 c -6.082,1.257 -11.485,1.89 -16.188,1.89 -11.941,0 -17.914,-4.644 -17.914,-13.953 0,-4.012 1.149,-7.148 3.449,-9.387 2.293,-2.234 5.45,-3.359 9.473,-3.359 z m -5.684,-14.473 c -8.043,0 -14.554,2.414 -19.55,7.239 -4.997,4.824 -7.497,11.086 -7.497,18.781 0,8.492 3.071,15.269 9.219,20.32 6.137,5.059 14.379,7.578 24.719,7.578 6.082,0 12.746,-0.859 19.973,-2.578 v 10.164 c 0,5.852 -1.258,9.934 -3.789,12.231 -2.52,2.293 -6.942,3.445 -13.254,3.445 -3.789,0 -7.985,-0.383 -12.578,-1.125 -4.598,-0.75 -8.957,-1.805 -13.094,-3.183 -1.149,-0.34 -2.121,-0.516 -2.93,-0.516 -1.488,0 -2.234,1.086 -2.234,3.269 v 6.379 c 0,1.602 0.226,2.754 0.687,3.438 0.457,0.691 1.664,1.433 3.617,2.246 8.957,3.445 18.887,5.168 29.801,5.168 11.254,0 19.547,-2.297 24.879,-6.899 5.352,-4.585 8.027,-11.765 8.027,-21.531 v -58.047 c 0,-2.531 -1.269,-3.789 -3.789,-3.789 h -9.14 c -2.52,0 -3.957,1.145 -4.309,3.449 l -0.859,4.989 c -4.024,-3.438 -8.465,-6.145 -13.344,-8.098 -4.883,-1.949 -9.73,-2.93 -14.555,-2.93" /><path
         id="path36"
         style="fill:#ffffff;fill-opacity:1;fill-rule:nonzero;stroke:none"
         d="m 780.027,145.777 c 7.344,0 12.805,2.5 16.36,7.5 3.562,4.993 5.34,12.598 5.34,22.825 0,10.105 -1.747,17.593 -5.254,22.476 -3.504,4.887 -8.926,7.317 -16.278,7.317 -7.461,0 -14.355,-2.176 -20.675,-6.543 v -46.856 c 6.437,-4.473 13.273,-6.719 20.507,-6.719 z M 742.988,96.168 c -2.531,0 -3.789,1.2695 -3.789,3.789 v 115.586 c 0,2.527 1.258,3.789 3.789,3.789 h 9.473 c 2.527,0 4.023,-1.144 4.48,-3.437 l 1.036,-5.34 c 4.015,3.672 8.468,6.48 13.351,8.433 4.871,1.953 9.961,2.934 15.242,2.934 10.91,0 19.61,-4.082 26.094,-12.231 6.484,-8.164 9.738,-19.121 9.738,-32.91 0,-9.527 -1.582,-17.847 -4.738,-24.968 -3.164,-7.122 -7.559,-12.579 -13.184,-16.368 -5.625,-3.789 -12.05,-5.683 -19.285,-5.683 -4.824,0 -9.472,0.832 -13.957,2.5 -4.48,1.66 -8.386,3.984 -11.718,6.972 V 99.957 c 0,-2.5195 -1.258,-3.789 -3.79,-3.789 h -12.742" /><path
         id="path38"
         style="fill:#ffffff;fill-opacity:1;fill-rule:nonzero;stroke:none"
         d="m 877.871,145.777 c 7.344,0 12.801,2.5 16.356,7.5 3.566,4.993 5.343,12.598 5.343,22.825 0,10.105 -1.75,17.593 -5.254,22.476 -3.507,4.887 -8.925,7.317 -16.281,7.317 -7.461,0 -14.355,-2.176 -20.672,-6.543 v -46.856 c 6.434,-4.473 13.27,-6.719 20.508,-6.719 z M 840.828,96.168 c -2.527,0 -3.789,1.2695 -3.789,3.789 v 115.586 c 0,2.527 1.262,3.789 3.789,3.789 h 9.473 c 2.531,0 4.023,-1.144 4.484,-3.437 l 1.035,-5.34 c 4.012,3.672 8.465,6.48 13.348,8.433 4.875,1.953 9.961,2.934 15.246,2.934 10.906,0 19.609,-4.082 26.094,-12.231 6.484,-8.164 9.734,-19.121 9.734,-32.91 0,-9.527 -1.582,-17.847 -4.734,-24.968 -3.164,-7.122 -7.559,-12.579 -13.184,-16.368 -5.625,-3.789 -12.051,-5.683 -19.289,-5.683 -4.824,0 -9.472,0.832 -13.953,2.5 -4.484,1.66 -8.391,3.984 -11.719,6.972 V 99.957 c 0,-2.5195 -1.261,-3.789 -3.789,-3.789 h -12.746" /><path
         id="path40"
         style="fill:#ffffff;fill-opacity:1;fill-rule:nonzero;stroke:none"
         d="m 958.359,129.066 c -9.074,0 -17.453,1.497 -25.148,4.485 -1.836,0.691 -3.016,1.406 -3.535,2.16 -0.516,0.738 -0.77,1.973 -0.77,3.699 v 6.199 c 0,2.297 0.801,3.45 2.41,3.45 0.801,0 2.414,-0.352 4.825,-1.036 8.156,-2.304 15.5,-3.449 22.05,-3.449 5.743,0 9.934,0.891 12.571,2.668 2.644,1.785 3.965,4.512 3.965,8.184 0,2.527 -0.801,4.57 -2.414,6.113 -1.61,1.555 -4.59,3.137 -8.954,4.734 l -14.296,5.52 c -12.864,4.934 -19.297,12.98 -19.297,24.109 0,8.039 2.988,14.387 8.953,19.043 5.976,4.653 13.957,6.977 23.945,6.977 7.121,0 14.297,-1.211 21.535,-3.613 1.727,-0.579 2.871,-1.243 3.446,-1.985 0.578,-0.754 0.859,-2.043 0.859,-3.879 v -6.035 c 0,-1.258 -0.203,-2.144 -0.606,-2.664 -0.398,-0.516 -1.113,-0.769 -2.148,-0.769 -0.574,0 -2.012,0.281 -4.305,0.859 -7.238,1.719 -13.097,2.574 -17.57,2.574 -5.281,0 -9.16,-0.769 -11.629,-2.32 -2.473,-1.543 -3.703,-3.985 -3.703,-7.317 0,-2.531 0.891,-4.57 2.668,-6.125 1.777,-1.543 4.969,-3.242 9.559,-5.078 l 13.261,-5.164 c 6.895,-2.644 11.867,-5.801 14.903,-9.472 3.046,-3.68 4.57,-8.329 4.57,-13.954 0,-8.617 -3.106,-15.421 -9.305,-20.414 -6.203,-5 -14.816,-7.5 -25.84,-7.5" /><path
         id="path42"
         style="fill:#ffffff;fill-opacity:1;fill-rule:nonzero;stroke:none"
         d="m 1041.73,130.453 c -9.07,0 -15.79,2.121 -20.15,6.367 -4.36,4.25 -6.55,10.743 -6.55,19.465 v 47.551 H 1004 c -2.52,0 -3.79,1.258 -3.79,3.785 v 4.992 c 0,1.492 0.3,2.559 0.87,3.196 0.57,0.625 1.49,1.05 2.76,1.289 l 11.88,1.715 2.58,20.851 c 0.12,1.375 0.52,2.356 1.21,2.93 0.68,0.566 1.72,0.859 3.1,0.859 h 8.96 c 2.52,0 3.79,-1.269 3.79,-3.789 v -20.332 h 21.18 c 2.53,0 3.79,-1.262 3.79,-3.789 v -7.922 c 0,-2.527 -1.26,-3.785 -3.79,-3.785 h -21.18 V 157.32 c 0,-3.906 0.95,-6.687 2.84,-8.347 1.9,-1.672 5.08,-2.5 9.56,-2.5 2.64,0 4.77,0.175 6.37,0.515 1.61,0.34 2.93,0.52 3.96,0.52 1.96,0 2.93,-1.098 2.93,-3.274 v -6.203 c 0,-1.843 -0.32,-3.133 -0.94,-3.875 -0.64,-0.754 -1.81,-1.355 -3.54,-1.804 -4.82,-1.274 -9.75,-1.899 -14.81,-1.899" /><path
         id="path44"
         style="fill:#ffffff;fill-opacity:1;fill-rule:nonzero;stroke:none"
         d="m 1108.78,145.094 c 14.46,0 21.7,10.168 21.7,30.488 0,20.215 -7.24,30.313 -21.7,30.313 -14.47,0 -21.71,-10.098 -21.71,-30.313 0,-20.32 7.24,-30.488 21.71,-30.488 z m 0,-16.028 c -13.33,0 -23.72,4.114 -31.18,12.329 -7.47,8.203 -11.2,19.597 -11.2,34.187 0,14.578 3.73,25.945 11.2,34.109 7.46,8.149 17.85,12.231 31.18,12.231 13.32,0 23.71,-4.082 31.17,-12.231 7.47,-8.164 11.2,-19.531 11.2,-34.109 0,-14.59 -3.73,-25.984 -11.2,-34.187 -7.46,-8.215 -17.85,-12.329 -31.17,-12.329" /><path
         id="path46"
         style="fill:#ffffff;fill-opacity:1;fill-rule:nonzero;stroke:none"
         d="m 1169.4,131.656 c -2.53,0 -3.79,1.258 -3.79,3.789 v 80.098 c 0,2.527 1.26,3.789 3.79,3.789 h 9.13 c 1.62,0 2.73,-0.227 3.36,-0.684 0.63,-0.46 1.07,-1.328 1.29,-2.585 l 2.07,-9.817 c 4.59,5.051 8.9,8.613 12.92,10.676 4.02,2.066 8.38,3.101 13.09,3.101 h 0.69 c 1.5,0 2.73,-0.144 3.7,-0.425 0.98,-0.293 1.67,-0.785 2.07,-1.465 0.4,-0.695 0.61,-1.953 0.61,-3.789 v -9.309 c 0,-2.414 -1.04,-3.613 -3.11,-3.613 -0.68,0 -1.63,0.058 -2.84,0.176 -1.2,0.105 -2.5,0.168 -3.88,0.168 -8.49,0 -16.01,-2.18 -22.56,-6.543 v -59.778 c 0,-2.531 -1.26,-3.789 -3.79,-3.789 h -12.75" /><path
         id="path48"
         style="fill:#ffffff;fill-opacity:1;fill-rule:nonzero;stroke:none"
         d="m 1281.51,184.195 v 1.375 c 0,7.004 -1.52,12.344 -4.57,16.028 -3.03,3.672 -7.49,5.507 -13.35,5.507 -6.2,0 -11.25,-2.07 -15.15,-6.203 -3.91,-4.129 -6.15,-9.707 -6.72,-16.707 z m -14.47,-55.129 c -14.47,0 -25.44,3.911 -32.9,11.719 -7.47,7.805 -11.2,19.184 -11.2,34.106 0,14.812 3.65,26.355 10.94,34.629 7.29,8.269 17.49,12.402 30.57,12.402 11.26,0 19.9,-3.078 25.93,-9.223 6.03,-6.14 9.04,-14.844 9.04,-26.094 0,-3.906 -0.28,-7.988 -0.86,-12.222 -0.23,-1.496 -0.66,-2.5 -1.29,-3.02 -0.63,-0.515 -1.46,-0.781 -2.5,-0.781 h -53.05 c 0.34,-8.723 2.78,-15.129 7.32,-19.199 4.53,-4.082 11.52,-6.121 20.93,-6.121 6.88,0 14.12,1.093 21.7,3.277 0.92,0.227 1.61,0.402 2.07,0.52 0.46,0.105 0.86,0.168 1.21,0.168 1.72,0 2.58,-1.145 2.58,-3.45 v -6.203 c 0,-1.719 -0.26,-2.945 -0.77,-3.699 -0.52,-0.742 -1.7,-1.465 -3.54,-2.148 -7.69,-3.106 -16.42,-4.661 -26.18,-4.661" /><path
         id="path50"
         style="fill:#ffffff;fill-opacity:1;fill-rule:nonzero;stroke:none"
         d="m 479.262,280 c 1.976,0 4.047,0.391 6.211,1.168 2.16,0.781 4.226,1.926 6.211,3.422 v 9.18 c -3.243,0.777 -6.422,1.168 -9.539,1.168 -6.786,0 -10.172,-2.61 -10.172,-7.829 0,-2.281 0.629,-4.039 1.886,-5.261 1.262,-1.231 3.063,-1.848 5.403,-1.848 z m -2.157,-6.754 c -4.265,0 -7.667,1.219 -10.214,3.649 -2.555,2.433 -3.828,5.683 -3.828,9.765 0,4.379 1.558,7.875 4.679,10.485 3.117,2.613 7.321,3.918 12.598,3.918 3.359,0 7.14,-0.516 11.344,-1.532 v 5.938 c 0,3.242 -0.739,5.519 -2.207,6.844 -1.469,1.316 -3.973,1.976 -7.516,1.976 -4.141,0 -8.188,-0.601 -12.148,-1.797 -1.379,-0.422 -2.25,-0.629 -2.614,-0.629 -0.715,0 -1.078,0.535 -1.078,1.614 v 2.433 c 0,0.781 0.117,1.352 0.363,1.707 0.239,0.363 0.715,0.692 1.434,0.992 1.859,0.84 4.219,1.516 7.066,2.028 2.852,0.508 5.684,0.765 8.504,0.765 5.7,0 9.907,-1.187 12.606,-3.558 2.699,-2.371 4.047,-5.981 4.047,-10.844 v -30.777 c 0,-1.203 -0.602,-1.801 -1.801,-1.801 h -3.867 c -1.145,0 -1.801,0.57 -1.985,1.707 l -0.449,2.969 c -2.156,-1.86 -4.547,-3.297 -7.152,-4.317 -2.614,-1.019 -5.203,-1.535 -7.782,-1.535" /><path
         id="path52"
         style="fill:#ffffff;fill-opacity:1;fill-rule:nonzero;stroke:none"
         d="m 524.805,274.422 c -0.84,0 -1.457,0.113 -1.848,0.359 -0.391,0.239 -0.797,0.93 -1.215,2.071 l -15.929,39.957 c -0.122,0.359 -0.258,0.722 -0.403,1.082 -0.152,0.359 -0.226,0.691 -0.226,0.988 0,0.781 0.449,1.172 1.347,1.172 h 5.313 c 0.898,0 1.527,-0.121 1.89,-0.363 0.356,-0.239 0.746,-0.926 1.168,-2.071 l 12.328,-35.097 12.333,35.097 c 0.417,1.145 0.812,1.832 1.167,2.071 0.364,0.242 0.993,0.363 1.891,0.363 h 4.949 c 0.903,0 1.356,-0.391 1.356,-1.172 0,-0.297 -0.078,-0.629 -0.231,-0.988 -0.144,-0.36 -0.285,-0.723 -0.398,-1.082 l -15.844,-39.957 c -0.422,-1.141 -0.828,-1.832 -1.215,-2.071 -0.39,-0.246 -1.004,-0.359 -1.843,-0.359 h -4.59" /><path
         id="path54"
         style="fill:#ffffff;fill-opacity:1;fill-rule:nonzero;stroke:none"
         d="m 568.719,280 c 1.976,0 4.051,0.391 6.211,1.168 2.16,0.781 4.23,1.926 6.211,3.422 v 9.18 c -3.243,0.777 -6.418,1.168 -9.539,1.168 -6.786,0 -10.172,-2.61 -10.172,-7.829 0,-2.281 0.629,-4.039 1.89,-5.261 1.258,-1.231 3.063,-1.848 5.399,-1.848 z m -2.156,-6.754 c -4.262,0 -7.668,1.219 -10.215,3.649 -2.555,2.433 -3.828,5.683 -3.828,9.765 0,4.379 1.562,7.875 4.679,10.485 3.117,2.613 7.321,3.918 12.602,3.918 3.355,0 7.137,-0.516 11.34,-1.532 v 5.938 c 0,3.242 -0.739,5.519 -2.207,6.844 -1.469,1.316 -3.973,1.976 -7.512,1.976 -4.145,0 -8.192,-0.601 -12.152,-1.797 -1.379,-0.422 -2.25,-0.629 -2.61,-0.629 -0.719,0 -1.082,0.535 -1.082,1.614 v 2.433 c 0,0.781 0.117,1.352 0.363,1.707 0.239,0.363 0.719,0.692 1.438,0.992 1.859,0.84 4.219,1.516 7.062,2.028 2.852,0.508 5.684,0.765 8.508,0.765 5.696,0 9.903,-1.187 12.602,-3.558 2.699,-2.371 4.047,-5.981 4.047,-10.844 v -30.777 c 0,-1.203 -0.602,-1.801 -1.801,-1.801 h -3.867 c -1.145,0 -1.801,0.57 -1.985,1.707 l -0.449,2.969 c -2.156,-1.86 -4.543,-3.297 -7.152,-4.317 -2.614,-1.019 -5.203,-1.535 -7.781,-1.535" /><path
         id="path56"
         style="fill:#ffffff;fill-opacity:1;fill-rule:nonzero;stroke:none"
         d="m 603.637,274.422 c -1.199,0 -1.797,0.598 -1.797,1.801 v 42.027 c 0,1.199 0.598,1.801 1.797,1.801 h 5.312 c 1.196,0 1.797,-0.602 1.797,-1.801 v -42.027 c 0,-1.203 -0.601,-1.801 -1.797,-1.801 z m 2.699,53.73 c -1.738,0 -3.106,0.493 -4.09,1.485 -0.992,0.988 -1.484,2.293 -1.484,3.914 0,1.621 0.492,2.926 1.484,3.918 0.984,0.984 2.352,1.484 4.09,1.484 1.742,0 3.105,-0.5 4.098,-1.484 0.992,-0.992 1.484,-2.297 1.484,-3.918 0,-1.621 -0.492,-2.926 -1.484,-3.914 -0.993,-0.992 -2.356,-1.485 -4.098,-1.485" /><path
         id="path58"
         style="fill:#ffffff;fill-opacity:1;fill-rule:nonzero;stroke:none"
         d="m 632.891,273.973 c -3.18,0 -5.614,0.91 -7.289,2.742 -1.68,1.832 -2.524,4.453 -2.524,7.875 v 54.629 c 0,1.203 0.602,1.804 1.805,1.804 h 5.305 c 1.203,0 1.804,-0.601 1.804,-1.804 v -54.09 c 0,-1.379 0.281,-2.383 0.856,-3.016 0.562,-0.629 1.511,-0.945 2.832,-0.945 0.359,0 0.734,0.027 1.125,0.094 0.39,0.058 0.734,0.086 1.035,0.086 0.601,0 1.004,-0.153 1.219,-0.45 0.207,-0.3 0.308,-0.75 0.308,-1.347 v -2.879 c 0,-0.602 -0.129,-1.07 -0.402,-1.399 -0.27,-0.332 -0.735,-0.585 -1.395,-0.765 -1.504,-0.356 -3.058,-0.535 -4.679,-0.535" /><path
         id="path60"
         style="fill:#ffffff;fill-opacity:1;fill-rule:nonzero;stroke:none"
         d="m 660.695,280 c 1.981,0 4.051,0.391 6.211,1.168 2.16,0.781 4.231,1.926 6.211,3.422 v 9.18 c -3.238,0.777 -6.418,1.168 -9.539,1.168 -6.781,0 -10.172,-2.61 -10.172,-7.829 0,-2.281 0.629,-4.039 1.891,-5.261 1.262,-1.231 3.062,-1.848 5.398,-1.848 z m -2.156,-6.754 c -4.262,0 -7.664,1.219 -10.215,3.649 -2.554,2.433 -3.828,5.683 -3.828,9.765 0,4.379 1.563,7.875 4.684,10.485 3.113,2.613 7.32,3.918 12.597,3.918 3.36,0 7.137,-0.516 11.34,-1.532 v 5.938 c 0,3.242 -0.734,5.519 -2.207,6.844 -1.469,1.316 -3.972,1.976 -7.512,1.976 -4.14,0 -8.187,-0.601 -12.148,-1.797 -1.383,-0.422 -2.25,-0.629 -2.613,-0.629 -0.719,0 -1.078,0.535 -1.078,1.614 v 2.433 c 0,0.781 0.117,1.352 0.359,1.707 0.238,0.363 0.719,0.692 1.437,0.992 1.86,0.84 4.219,1.516 7.067,2.028 2.848,0.508 5.683,0.765 8.504,0.765 5.699,0 9.902,-1.187 12.601,-3.558 2.707,-2.371 4.055,-5.981 4.055,-10.844 v -30.777 c 0,-1.203 -0.605,-1.801 -1.809,-1.801 h -3.867 c -1.14,0 -1.801,0.57 -1.98,1.707 l -0.449,2.969 c -2.161,-1.86 -4.547,-3.297 -7.157,-4.317 -2.609,-1.019 -5.203,-1.535 -7.781,-1.535" /><path
         id="path62"
         style="fill:#ffffff;fill-opacity:1;fill-rule:nonzero;stroke:none"
         d="m 714.246,280.633 c 8.281,0 12.422,5.578 12.422,16.734 0,5.699 -1.004,9.934 -3.016,12.692 -2.011,2.761 -5.089,4.14 -9.23,4.14 -4.258,0 -8.281,-1.379 -12.059,-4.14 v -25.106 c 3.778,-2.883 7.742,-4.32 11.883,-4.32 z m 2.07,-7.203 c -5.515,0 -10.351,1.918 -14.492,5.761 l -0.625,-2.968 c -0.183,-1.203 -0.879,-1.801 -2.07,-1.801 h -3.875 c -1.203,0 -1.797,0.598 -1.797,1.801 v 62.996 c 0,1.203 0.594,1.804 1.797,1.804 h 5.312 c 1.2,0 1.797,-0.601 1.797,-1.804 v -23.492 c 4.5,3.781 9.364,5.675 14.578,5.675 5.821,0 10.411,-2.105 13.77,-6.304 3.359,-4.2 5.051,-9.961 5.051,-17.282 0,-7.375 -1.778,-13.289 -5.313,-17.726 -3.547,-4.442 -8.254,-6.66 -14.133,-6.66" /><path
         id="path64"
         style="fill:#ffffff;fill-opacity:1;fill-rule:nonzero;stroke:none"
         d="m 755.203,273.973 c -3.183,0 -5.613,0.91 -7.293,2.742 -1.68,1.832 -2.519,4.453 -2.519,7.875 v 54.629 c 0,1.203 0.593,1.804 1.797,1.804 h 5.312 c 1.199,0 1.797,-0.601 1.797,-1.804 v -54.09 c 0,-1.379 0.281,-2.383 0.859,-3.016 0.567,-0.629 1.512,-0.945 2.832,-0.945 0.36,0 0.731,0.027 1.121,0.094 0.391,0.058 0.743,0.086 1.036,0.086 0.605,0 1.007,-0.153 1.222,-0.45 0.203,-0.3 0.313,-0.75 0.313,-1.347 v -2.879 c 0,-0.602 -0.137,-1.07 -0.403,-1.399 -0.273,-0.332 -0.742,-0.585 -1.394,-0.765 -1.504,-0.356 -3.067,-0.535 -4.68,-0.535" /><path
         id="path66"
         style="fill:#ffffff;fill-opacity:1;fill-rule:nonzero;stroke:none"
         d="m 798.398,301.242 c 0.059,0.477 0.086,1.258 0.086,2.34 0,3.656 -0.847,6.418 -2.566,8.281 -1.711,1.856 -4.211,2.785 -7.512,2.785 -3.777,0 -6.718,-1.121 -8.816,-3.371 -2.102,-2.254 -3.301,-5.597 -3.606,-10.035 z m -8.644,-28.172 c -7.383,0 -12.957,2.039 -16.738,6.121 -3.778,4.079 -5.672,10.106 -5.672,18.09 0,7.617 1.894,13.547 5.672,17.774 3.781,4.226 9.062,6.347 15.839,6.347 5.704,0 10.079,-1.605 13.145,-4.82 3.059,-3.207 4.59,-7.754 4.59,-13.633 0,-1.918 -0.156,-3.871 -0.457,-5.847 -0.117,-0.723 -0.313,-1.204 -0.578,-1.442 -0.274,-0.238 -0.711,-0.359 -1.309,-0.359 h -28.262 c 0.118,-5.164 1.399,-8.973 3.829,-11.434 2.433,-2.461 6.191,-3.683 11.289,-3.683 1.808,0 3.527,0.117 5.175,0.355 1.653,0.238 3.743,0.75 6.262,1.531 0.418,0.118 0.781,0.227 1.074,0.313 0.301,0.094 0.575,0.137 0.809,0.137 0.781,0 1.172,-0.54 1.172,-1.622 v -2.519 c 0,-0.781 -0.117,-1.336 -0.36,-1.664 -0.234,-0.332 -0.754,-0.676 -1.523,-1.035 -1.809,-0.782 -3.945,-1.41 -6.438,-1.891 -2.488,-0.476 -5,-0.719 -7.519,-0.719" /><path
         id="path68"
         style="fill:#ffffff;fill-opacity:1;fill-rule:nonzero;stroke:none"
         d="m 851.492,280 c 1.985,0 4.055,0.391 6.211,1.168 2.16,0.781 4.231,1.926 6.211,3.422 v 9.18 c -3.242,0.777 -6.426,1.168 -9.539,1.168 -6.789,0 -10.176,-2.61 -10.176,-7.829 0,-2.281 0.633,-4.039 1.895,-5.261 1.258,-1.231 3.054,-1.848 5.398,-1.848 z m -2.156,-6.754 c -4.27,0 -7.668,1.219 -10.215,3.649 -2.551,2.433 -3.828,5.683 -3.828,9.765 0,4.379 1.562,7.875 4.676,10.485 3.125,2.613 7.324,3.918 12.609,3.918 3.36,0 7.137,-0.516 11.336,-1.532 v 5.938 c 0,3.242 -0.742,5.519 -2.207,6.844 -1.473,1.316 -3.973,1.976 -7.519,1.976 -4.141,0 -8.184,-0.601 -12.149,-1.797 -1.375,-0.422 -2.246,-0.629 -2.605,-0.629 -0.723,0 -1.086,0.535 -1.086,1.614 v 2.433 c 0,0.781 0.129,1.352 0.363,1.707 0.242,0.363 0.723,0.692 1.445,0.992 1.856,0.84 4.207,1.516 7.059,2.028 2.851,0.508 5.683,0.765 8.508,0.765 5.703,0 9.902,-1.187 12.597,-3.558 2.703,-2.371 4.051,-5.981 4.051,-10.844 v -30.777 c 0,-1.203 -0.594,-1.801 -1.797,-1.801 h -3.875 c -1.133,0 -1.797,0.57 -1.972,1.707 l -0.45,2.969 c -2.168,-1.86 -4.55,-3.297 -7.16,-4.317 -2.605,-1.019 -5.203,-1.535 -7.781,-1.535" /><path
         id="path70"
         style="fill:#ffffff;fill-opacity:1;fill-rule:nonzero;stroke:none"
         d="m 899.922,273.789 c -8.527,0 -12.785,4.258 -12.785,12.777 v 26.461 h -6.485 c -1.199,0 -1.797,0.602 -1.797,1.805 v 2.25 c 0,0.594 0.137,1.051 0.403,1.348 0.273,0.3 0.801,0.511 1.582,0.629 l 6.57,0.812 1.164,11.16 c 0.125,1.196 0.75,1.797 1.895,1.797 h 3.777 c 1.203,0 1.797,-0.601 1.797,-1.797 v -10.98 h 11.699 c 1.203,0 1.809,-0.602 1.809,-1.801 v -3.418 c 0,-1.203 -0.606,-1.805 -1.809,-1.805 H 896.043 V 287.02 c 0,-2.219 0.5,-3.782 1.484,-4.68 0.996,-0.899 2.688,-1.348 5.09,-1.348 1.141,0 2.547,0.149 4.227,0.449 0.898,0.18 1.504,0.27 1.808,0.27 0.477,0 0.801,-0.137 0.985,-0.406 0.176,-0.27 0.273,-0.707 0.273,-1.305 v -2.43 c 0,-0.781 -0.125,-1.367 -0.359,-1.754 -0.246,-0.39 -0.723,-0.707 -1.446,-0.949 -2.335,-0.715 -5.07,-1.078 -8.183,-1.078" /></g></g></svg>